<?xml version="1.0" standalone="no"?>
<!DOCTYPE svg PUBLIC "-//W3C//DTD SVG 20010904//EN"
 "http://www.w3.org/TR/2001/REC-SVG-20010904/DTD/svg10.dtd">
<svg version="1.0" xmlns="http://www.w3.org/2000/svg"
 width="1140.000000pt" height="94.000000pt" viewBox="0 0 1140.000000 94.000000"
 preserveAspectRatio="xMidYMid meet">
<metadata>
Created by potrace 1.16, written by Peter Selinger 2001-2019
</metadata>
<g transform="translate(0.000000,94.000000) scale(0.100000,-0.100000)"
fill="#FFFFFF" stroke="none">
<path d="M232 928 c-11 -14 -220 -748 -224 -788 l-3 -25 193 -3 c111 -1 192 1
192 7 0 5 -24 47 -53 94 -54 85 -105 216 -92 236 10 18 102 61 127 61 21 0 30
-18 93 -186 37 -102 73 -191 79 -199 8 -10 47 -14 153 -17 78 -1 145 0 148 4
9 9 -255 786 -278 816 -7 9 -53 12 -167 12 -114 0 -160 -3 -168 -12z m98 -229
c22 -63 40 -119 40 -124 0 -9 -116 -55 -139 -55 -14 0 -14 90 0 165 11 58 46
142 55 132 3 -3 23 -56 44 -118z"/>
<path d="M1275 933 c-155 -21 -278 -109 -340 -244 -30 -68 -49 -192 -41 -279
22 -244 156 -362 378 -333 l82 11 20 -26 c49 -63 47 -62 180 -62 l124 0 16 47
c27 79 24 86 -31 80 -27 -3 -73 -11 -103 -18 -31 -7 -69 -9 -85 -5 l-29 7 50
29 c27 15 61 41 76 56 44 47 97 144 120 217 41 135 8 356 -64 428 -73 72 -217
110 -353 92z m313 -166 c2 -19 -9 -50 -37 -95 -22 -37 -63 -120 -90 -184 -65
-149 -113 -231 -154 -262 -50 -38 -127 -69 -174 -70 -55 -1 -90 32 -109 103
-25 98 22 256 99 334 100 100 327 209 422 204 36 -2 40 -5 43 -30z"/>
<path d="M2901 921 c-17 -31 -221 -756 -221 -784 l0 -27 190 0 c149 0 190 3
190 13 0 7 -13 31 -30 54 -62 84 -126 237 -113 270 7 18 99 63 129 63 18 0 30
-25 90 -186 37 -102 73 -192 79 -200 7 -9 47 -14 152 -15 79 -2 145 0 148 3
11 10 -254 787 -277 816 -8 9 -54 12 -169 12 -145 0 -159 -2 -168 -19z m100
-222 c21 -63 39 -119 39 -124 0 -13 -127 -58 -140 -50 -13 8 -13 87 1 160 11
58 46 142 55 132 3 -3 23 -56 45 -118z"/>
<path d="M1948 923 c-43 -2 -78 -6 -78 -9 0 -3 8 -28 17 -57 14 -44 15 -63 5
-141 -6 -50 -23 -136 -38 -191 -38 -141 -39 -270 -4 -339 35 -69 64 -88 147
-93 64 -4 74 -1 166 40 95 44 115 44 82 1 -32 -42 -24 -45 138 -42 l152 3 6
190 c5 165 9 205 34 300 30 118 36 211 16 282 -6 23 -17 45 -23 49 -12 8 -279
6 -286 -1 -2 -2 11 -30 29 -62 33 -56 34 -62 33 -163 0 -90 -5 -118 -32 -200
-52 -156 -122 -257 -216 -310 -72 -42 -134 -42 -170 1 -21 24 -26 41 -26 83 0
108 47 198 177 339 61 67 90 117 99 175 7 43 -9 106 -34 135 -16 18 -13 18
-194 10z"/>
<path d="M4560 727 l0 -193 -170 -98 -171 -98 19 -32 c10 -17 44 -77 77 -133
32 -57 63 -103 68 -103 4 0 46 22 93 50 l84 50 0 -85 0 -85 155 0 155 0 0 174
0 174 158 91 c86 50 163 95 171 100 11 7 -1 36 -63 145 l-78 135 -29 -14 c-15
-8 -54 -31 -86 -50 -32 -19 -61 -35 -65 -35 -5 0 -8 45 -8 100 l0 100 -155 0
-155 0 0 -193z"/>
<path d="M10055 868 c-27 -5 -78 -23 -112 -39 -153 -73 -233 -218 -233 -422 0
-211 71 -340 214 -387 51 -16 219 -7 296 16 241 72 370 376 275 648 -13 38
-36 81 -50 96 -79 82 -236 118 -390 88z m343 -130 c20 -20 14 -49 -27 -117
-21 -36 -58 -111 -81 -166 -96 -226 -140 -289 -235 -335 -27 -13 -73 -26 -102
-28 -49 -4 -55 -2 -82 26 -58 63 -69 200 -23 297 31 64 119 161 193 212 135
93 318 150 357 111z"/>
<path d="M7009 860 c-141 -4 -262 -11 -268 -14 -16 -10 -13 -94 7 -151 19 -56
9 -54 153 -41 l86 8 -10 -50 c-9 -42 -7 -72 11 -169 26 -139 28 -247 6 -323
-8 -30 -18 -65 -21 -77 l-5 -23 140 0 c156 0 161 2 182 66 33 98 -15 222 -139
362 -45 51 -89 109 -97 128 -14 33 -13 36 10 59 25 25 28 25 184 25 92 0 162
4 168 10 13 13 -1 167 -17 186 -8 10 -31 13 -73 12 -33 -1 -176 -4 -317 -8z"/>
<path d="M8430 449 l0 -416 168 -7 c188 -8 267 2 387 50 56 22 84 42 142 99
64 64 73 78 93 144 56 183 -22 368 -201 476 -87 53 -146 64 -382 67 l-207 3 0
-416z m392 324 c134 -73 218 -254 188 -406 -16 -83 -53 -149 -117 -207 -57
-52 -131 -83 -185 -78 l-33 3 -3 340 c-1 187 0 351 3 364 6 22 10 23 52 17 25
-3 68 -18 95 -33z"/>
<path d="M6150 847 c-82 -23 -176 -99 -199 -160 -29 -75 2 -208 61 -264 45
-42 83 -59 158 -73 136 -23 177 -34 246 -65 86 -39 114 -71 114 -132 0 -55
-33 -93 -80 -93 -42 0 -59 11 -154 93 -99 85 -142 106 -219 107 -101 0 -157
-47 -157 -131 0 -48 16 -99 31 -99 5 0 27 10 50 22 41 21 41 21 122 3 45 -10
109 -24 142 -31 141 -31 253 -11 333 61 91 82 119 187 75 286 -41 92 -113 141
-263 179 -101 26 -201 70 -235 104 -48 48 -22 122 51 146 62 21 100 2 194 -97
l82 -86 89 90 c106 108 112 126 37 117 -32 -3 -89 1 -143 10 -129 23 -280 29
-335 13z"/>
<path d="M7584 845 c-4 -8 0 -23 7 -32 26 -30 16 -182 -20 -328 -42 -168 -45
-284 -11 -363 29 -67 72 -92 159 -92 65 0 69 1 183 54 79 36 87 33 51 -19 -7
-11 -13 -23 -13 -27 0 -5 69 -8 154 -8 l154 0 5 193 c3 170 7 204 32 297 31
117 36 227 13 295 l-13 40 -135 3 c-73 1 -140 0 -148 -3 -10 -4 -6 -18 18 -60
56 -99 57 -202 0 -377 -59 -186 -174 -314 -299 -334 -37 -6 -44 -3 -76 29 -31
31 -35 41 -35 84 0 105 43 187 176 340 76 87 93 119 101 182 4 36 0 59 -15 94
l-21 47 -131 0 c-107 0 -132 -3 -136 -15z"/>
<path d="M9367 845 c-15 -15 -17 -56 -16 -411 1 -274 4 -396 12 -401 17 -11
220 -4 228 8 7 11 -1 801 -8 809 -3 3 -49 7 -102 8 -81 3 -101 1 -114 -13z"/>
<path d="M10870 847 c-94 -27 -193 -114 -206 -182 -16 -85 10 -179 65 -238 41
-45 86 -63 216 -87 135 -25 249 -71 283 -115 50 -63 14 -165 -58 -165 -42 0
-59 11 -154 93 -99 85 -142 106 -219 107 -101 0 -157 -47 -157 -131 0 -48 16
-99 31 -99 5 0 27 10 50 22 41 21 41 21 122 3 45 -10 109 -24 142 -31 137 -31
252 -11 328 56 75 66 87 93 87 198 0 85 -2 92 -33 138 -42 60 -120 105 -234
133 -102 26 -203 70 -238 105 -35 36 -34 80 5 116 71 66 130 50 239 -66 55
-59 83 -82 95 -78 19 7 166 171 166 184 0 6 -28 10 -62 10 -35 0 -97 7 -139
15 -115 21 -275 28 -329 12z"/>
</g>
</svg>
