<svg id="Layer_1" data-name="Layer 1" xmlns="http://www.w3.org/2000/svg" viewBox="0 0 1080 1080"><defs><style>.cls-1{fill:#fff;}</style></defs><path class="cls-1" d="M128.94,585.76a4.51,4.51,0,0,1,.3,1.46,1.16,1.16,0,0,1-.4,1,3,3,0,0,1-1.81.4,13.07,13.07,0,0,1-1.7-.1,12.94,12.94,0,0,0-1.31-.1H111.57c-1.48.07-3,.07-4.52,0a4.76,4.76,0,0,1-1.86-.45,2.91,2.91,0,0,1-1.15-1.36,23.91,23.91,0,0,1-1.41-3.61q-3.52-9.24-10.35-27.72-.5-1.41-1.5-1.41a12.86,12.86,0,0,0-2,.4,22.37,22.37,0,0,0-4.72,1.61,33.34,33.34,0,0,0-4.12,2.26,3.86,3.86,0,0,0-1.71,2.56v.91A39,39,0,0,0,81.13,571a51.78,51.78,0,0,0,4.62,8.83l2.41,3.82c.21.27.69.85,1.46,1.76a3.88,3.88,0,0,1,1.16,2.16c0,.67-.67,1-2,1l-2.31-.1H62.35a7.72,7.72,0,0,1-2.51-.3,1.54,1.54,0,0,1-.8-1.51,13.71,13.71,0,0,1,.3-1.9q1.2-4.23,4.92-17.58l11.95-42c.14-.4.42-1.41.86-3s1-2.57,1.61-2.91a6.37,6.37,0,0,1,2.86-.5l3.41.1c3.68,0,6.7,0,9,.1,7,0,10.68,0,11,.1.67.27,1.3,1.34,1.91,3.22q7.73,20.18,14.76,42.48,1,3.31,2.51,7.53c1,2.81,1.74,4.89,2.21,6.23l2.21,6.23A10.86,10.86,0,0,1,128.94,585.76ZM90,549.25a5.91,5.91,0,0,0-.4-1.76,12.46,12.46,0,0,1-.5-1.65L87,540.21l-3.31-10a11.89,11.89,0,0,1-.3-1.41q-.21-1.1-.81-1.2c-.67-.07-1.41.7-2.21,2.31a33.65,33.65,0,0,0-3.21,9.94,43.68,43.68,0,0,0-.7,7.94,45.68,45.68,0,0,0,.3,5.22c0,.13,0,.38,0,.75a1.05,1.05,0,0,0,.31.75,1.32,1.32,0,0,0,.85.21,9.53,9.53,0,0,0,2.66-.91c1.37-.6,2.26-1,2.66-1.1l2.11-.71a25.12,25.12,0,0,0,4-1.4l.4-.4A1.36,1.36,0,0,0,90,549.25Z"/><path class="cls-1" d="M200.65,586.91a1.8,1.8,0,0,1,1.31.41,1.37,1.37,0,0,1,.3,1,6.42,6.42,0,0,1-.35,1.81,16,16,0,0,0-.46,1.61c-.2.73-.77,2.41-1.7,5-.14.33-.47,1.17-1,2.51a10.59,10.59,0,0,0-.5,1.35,1.61,1.61,0,0,1-.9,1.16,7.56,7.56,0,0,1-3,.5,25.6,25.6,0,0,1-11.24-2.61,19.54,19.54,0,0,1-5.63-3.92,35.53,35.53,0,0,1-4.62-5.82l-8.94,1.2a29,29,0,0,1-4.11.3,25.56,25.56,0,0,1-6.73-.9,23.06,23.06,0,0,1-16.38-15.06,47.68,47.68,0,0,1-2.81-16.17,62.36,62.36,0,0,1,.51-7.34c.26-2.14.5-3.71.7-4.72q2.91-14.36,16.17-22.79a27.45,27.45,0,0,1,7.38-3.37,50.33,50.33,0,0,1,8.79-1.66,33.22,33.22,0,0,1,4.22-.2A59,59,0,0,1,181,520q6.63.9,13.35,6.22a11.43,11.43,0,0,1,3.62,4.82,50.89,50.89,0,0,1,4.42,20q0,13.86-9.14,26.41A29.5,29.5,0,0,1,182,586.91c-1.2.61-2,1-2.31,1.21a5.92,5.92,0,0,0,2.41,1.36,19.62,19.62,0,0,0,2.91.35,21.56,21.56,0,0,0,4.12-.4q2-.4,5-1.21a33.43,33.43,0,0,1,4.32-1A12.06,12.06,0,0,1,200.65,586.91ZM180.36,560.7c.34-.67,1.07-2.41,2.21-5.22q2.42-5.73,4.42-9.69a55.78,55.78,0,0,1,4.62-7.58,9.83,9.83,0,0,0,1.51-3.92,5.22,5.22,0,0,0,.1-1.21q0-3.21-3.92-3.21a22.24,22.24,0,0,0-3.51.2A48.1,48.1,0,0,0,174,533.58c-1.61.81-2.82,1.44-3.62,1.91-3.61,1.81-6,3.08-7.23,3.82a53.83,53.83,0,0,0-9.54,6.93,28.57,28.57,0,0,0-7.18,10.49A48.71,48.71,0,0,0,143.4,570a19.84,19.84,0,0,0,2.52,10.85,8.32,8.32,0,0,0,8,4.42c.27,0,.7,0,1.31-.1a14,14,0,0,0,1.7-.3q12.06-3.12,17.18-11.75A107.15,107.15,0,0,0,180.36,560.7Z"/><path class="cls-1" d="M277.68,534.19a25.25,25.25,0,0,1-.8,6.63c-.34,1.6-.67,3-1,4.11-.87,3.89-1.54,6.63-2,8.24a46.58,46.58,0,0,0-1.71,13c.06,4,.1,9.81.1,17.58,0,1.61,0,2.81-.1,3.62v.5c0,.8-.27,1.3-.8,1.51a1.21,1.21,0,0,0-.41.15,1.33,1.33,0,0,1-.6.15l-22,.2c-1.07,0-1.5-.37-1.3-1.11A4.73,4.73,0,0,1,248,587a7.76,7.76,0,0,0,1.61-3.41,3.6,3.6,0,0,1,.15-.75q.15-.55-.15-.66h-.3a2.42,2.42,0,0,0-.91.11l-2.81,1.3q-6.63,3.21-9.94,4.62a18.59,18.59,0,0,1-7.63,1.61,21.08,21.08,0,0,1-6.93-1.21,9.66,9.66,0,0,1-6-5.42A28.32,28.32,0,0,1,212.4,571a59,59,0,0,1,2.91-18.18,72.16,72.16,0,0,0,2-8.24q.75-4.21,1.36-9.84a23.05,23.05,0,0,0,.1-2.41c0-1.47,0-2.58-.1-3.32-.07-.4-.15-1.05-.25-2a13.34,13.34,0,0,0-.46-2.36A7,7,0,0,0,217,523a2.55,2.55,0,0,1-.65-2v-.1c.33-.47,1.47-.7,3.41-.7q10.74,0,16.07-.2a3.78,3.78,0,0,1,2.16.3,4.62,4.62,0,0,1,1.36,1.7,17.43,17.43,0,0,1,2.2,8,18.06,18.06,0,0,1-3.61,10.54,51,51,0,0,1-4.32,5.33c-1.61,1.74-2.54,2.74-2.81,3a85.17,85.17,0,0,0-9,11.85,22.67,22.67,0,0,0-2.81,6.58,52.26,52.26,0,0,0-1.31,8v.5a11.94,11.94,0,0,0,2.51,7.43,7.87,7.87,0,0,0,6.33,2.71,15.92,15.92,0,0,0,4.52-.8,24.7,24.7,0,0,0,10-6.13,51.82,51.82,0,0,0,11-17.27,87.83,87.83,0,0,0,4.82-17.68,31.82,31.82,0,0,0-.5-12.55,20.63,20.63,0,0,0-2.41-5.83c-.2-.33-.7-1-1.51-2.11a4.86,4.86,0,0,1-1.2-2.51c0-.6.53-.9,1.61-.9q6.31-.11,18.88-.1a5.28,5.28,0,0,1,2.81.5,4.9,4.9,0,0,1,1.3,2.51A37.83,37.83,0,0,1,277.68,534.19Z"/><path class="cls-1" d="M354.32,585.76a4.51,4.51,0,0,1,.3,1.46,1.18,1.18,0,0,1-.4,1,3,3,0,0,1-1.81.4,13.12,13.12,0,0,1-1.71-.1,12.73,12.73,0,0,0-1.31-.1H336.94c-1.47.07-3,.07-4.52,0a4.86,4.86,0,0,1-1.86-.45,3,3,0,0,1-1.15-1.36A23.91,23.91,0,0,1,328,583q-3.51-9.24-10.34-27.72c-.34-.94-.84-1.41-1.51-1.41a12.86,12.86,0,0,0-2,.4,22.79,22.79,0,0,0-4.72,1.61,33.34,33.34,0,0,0-4.12,2.26,3.88,3.88,0,0,0-1.7,2.56v.91a38.58,38.58,0,0,0,2.91,9.34,51.07,51.07,0,0,0,4.62,8.83l2.41,3.82c.2.27.69.85,1.46,1.76a3.84,3.84,0,0,1,1.15,2.16c0,.67-.67,1-2,1l-2.31-.1h-24.1a7.68,7.68,0,0,1-2.51-.3,1.53,1.53,0,0,1-.81-1.51,13.71,13.71,0,0,1,.3-1.9q1.21-4.23,4.93-17.58l11.95-42c.13-.4.42-1.41.85-3s1-2.57,1.61-2.91a6.4,6.4,0,0,1,2.86-.5l3.42.1c3.68,0,6.69,0,9,.1,7,0,10.68,0,10.95.1.67.27,1.31,1.34,1.91,3.22q7.72,20.18,14.76,42.48,1,3.31,2.51,7.53c1,2.81,1.74,4.89,2.21,6.23l2.21,6.23A9.88,9.88,0,0,1,354.32,585.76Zm-39-36.51a6,6,0,0,0-.41-1.76,16.64,16.64,0,0,1-.5-1.65l-2.11-5.63-3.31-10a11.89,11.89,0,0,1-.3-1.41c-.14-.73-.4-1.13-.81-1.2-.67-.07-1.4.7-2.2,2.31a33.93,33.93,0,0,0-3.22,9.94,43.68,43.68,0,0,0-.7,7.94,45.68,45.68,0,0,0,.3,5.22c0,.13,0,.38.05.75a1,1,0,0,0,.3.75,1.35,1.35,0,0,0,.86.21,9.63,9.63,0,0,0,2.66-.91c1.37-.6,2.26-1,2.66-1.1l2.11-.71a25.29,25.29,0,0,0,4-1.4l.41-.4A1.42,1.42,0,0,0,315.35,549.25Z"/><path class="cls-1" d="M622.75,574.64a18.33,18.33,0,0,1-2.9,9.72q-7.82,12.33-22.36,12.33a65.72,65.72,0,0,1-16.74-2.7q-5.62-1.41-8.52-2a11,11,0,0,0-3.11-.4,10.5,10.5,0,0,0-6.72,2.51,2.54,2.54,0,0,1-1.5.6,1.06,1.06,0,0,1-.9-.4,11.18,11.18,0,0,1-2.21-6.62,15.28,15.28,0,0,1,.7-4.21q1.82-5.82,8.72-7.12a29.39,29.39,0,0,1,3.92-.4,19.27,19.27,0,0,1,12.13,4.41q4.31,3.51,7.72,6.62l1.5,1.4q2.21,2,3.31,2.91a9.77,9.77,0,0,0,6.51,2.1,7.13,7.13,0,0,0,6.82-4.61,10.78,10.78,0,0,0,.8-4.21,10.2,10.2,0,0,0-.5-3.3,6.68,6.68,0,0,0-1-2.11,13.58,13.58,0,0,0-1.61-2,15.41,15.41,0,0,0-3.16-2.3c-1.1-.6-2.23-1.15-3.41-1.66l-2.45-1a23.71,23.71,0,0,0-5.81-1.9q-7.12-1.5-14.64-2.71a21.33,21.33,0,0,1-8.92-3.51,19.86,19.86,0,0,1-3.61-3.11,25.52,25.52,0,0,1-5.11-12.43,20.53,20.53,0,0,1-.21-2.5,15.9,15.9,0,0,1,4.72-11.13,30.54,30.54,0,0,1,8.82-6.57,26.36,26.36,0,0,1,10.52-2.46,96.48,96.48,0,0,1,23,2.31,32.48,32.48,0,0,0,6.92.8c1.61,0,2.77,0,3.51-.1l2-.25a10.9,10.9,0,0,1,2.26-.05.49.49,0,0,1,.4.5,5.24,5.24,0,0,1-1,1.71,9.61,9.61,0,0,0-1,1.2l-3.51,3.91q-3.81,4.21-7.22,7.42l-.8.85a1.61,1.61,0,0,1-1.1.65c-.4,0-1-.43-1.91-1.3l-2.21-2.71c-.93-1.2-1.86-2.33-2.8-3.41a51.89,51.89,0,0,0-6.42-5.91,11.7,11.7,0,0,0-6.91-2.21,11,11,0,0,0-7.62,3,7.22,7.22,0,0,0-2.61,5.41,11.07,11.07,0,0,0,.2,1.71,6.13,6.13,0,0,0,2.3,4.11,33.16,33.16,0,0,0,3.61,2.31,58.65,58.65,0,0,0,15.54,5.91A43,43,0,0,1,609,555.09a22.55,22.55,0,0,1,11.73,11.33A17.69,17.69,0,0,1,622.75,574.64Z"/><path class="cls-1" d="M684.11,538.15a8.58,8.58,0,0,1,.19,1.5,1.58,1.58,0,0,1-.85,1.6,5,5,0,0,1-2.15.4c-4.08,0-7.15,0-9.23.11l-9.31.09h-2.82c-1.26,0-2.23,0-2.9.11a5,5,0,0,0-3.56,1.5,4.7,4.7,0,0,0-1.35,3.41,5.4,5.4,0,0,0,.3,1.8,17.86,17.86,0,0,0,4.41,6.92q5.1,5.42,9,10a41.12,41.12,0,0,1,7.52,14.63,19.89,19.89,0,0,1,.6,4.82,14.18,14.18,0,0,1-.6,4.1,11.53,11.53,0,0,1-.8,1.91,5.83,5.83,0,0,0-.35.85,4.83,4.83,0,0,1-.46,1,10.76,10.76,0,0,0-.5,1,2.71,2.71,0,0,1-.75,1,1.68,1.68,0,0,1-1,.35h-3.21q-5.12.1-10.42.15c-3.55,0-6.12,0-7.73-.05l-.5.05a.68.68,0,0,1-.6-.15,1,1,0,0,1-.3-.7,3.22,3.22,0,0,1,.35-1.26c.24-.49.38-.81.46-1a31.52,31.52,0,0,0,2.5-12.23c.07-1,.1-2.47.1-4.41a63.71,63.71,0,0,0-1.71-15,14.43,14.43,0,0,1-.4-2.2c-.27-1.47-.49-2.57-.7-3.31a23.14,23.14,0,0,1-.5-4.41,22.72,22.72,0,0,1,.8-5.92c.07-.2.27-1.1.61-2.71-.94-.06-2.34-.09-4.21-.09a45.3,45.3,0,0,0-6.42.4c-1.6.2-3.78.43-6.51.7h-.31a1.89,1.89,0,0,1-1.91-1.21,62.87,62.87,0,0,1-2.1-7.82c-.07-.53-.19-1.3-.35-2.3a17,17,0,0,1-.25-2.61,2.62,2.62,0,0,1,.9-2.15,5.16,5.16,0,0,1,2.6-.65q4.92-.3,27.47-.86t23.87-.35a1.93,1.93,0,0,1,1.4,1,8.54,8.54,0,0,1,.7,2.35,28.57,28.57,0,0,1,.61,4.71l.19,3.31A8.58,8.58,0,0,0,684.11,538.15Z"/><path class="cls-1" d="M759.5,539.65a24.74,24.74,0,0,1-.81,6.62c-.33,1.6-.67,3-1,4.11-.87,3.88-1.53,6.61-2,8.22a46.39,46.39,0,0,0-1.7,12.93c.06,4,.09,9.79.09,17.55q0,2.4-.09,3.6v.5c0,.81-.27,1.31-.81,1.51a1.18,1.18,0,0,0-.4.15,1.33,1.33,0,0,1-.6.15l-21.95.2c-1.08,0-1.51-.37-1.31-1.1a4.65,4.65,0,0,1,.9-1.71,7.71,7.71,0,0,0,1.61-3.41,4.11,4.11,0,0,1,.14-.75c.11-.36.06-.58-.14-.65h-.3a2.38,2.38,0,0,0-.9.1l-2.82,1.3c-4.4,2.15-7.72,3.68-9.92,4.61a18.35,18.35,0,0,1-7.62,1.61A21.32,21.32,0,0,1,703,594a9.68,9.68,0,0,1-6-5.42,28.2,28.2,0,0,1-2.61-12.23,58.75,58.75,0,0,1,2.91-18.14,74.5,74.5,0,0,0,2-8.22q.76-4.22,1.36-9.83a22.69,22.69,0,0,0,.1-2.4c0-1.48,0-2.58-.1-3.31-.07-.41-.15-1.05-.25-2a12.54,12.54,0,0,0-.46-2.35,7.23,7.23,0,0,0-.94-1.66,2.52,2.52,0,0,1-.65-2v-.1c.33-.47,1.46-.7,3.4-.7q10.73,0,16.05-.21a4,4,0,0,1,2.15.3,4.58,4.58,0,0,1,1.35,1.71,17.34,17.34,0,0,1,2.21,8,18,18,0,0,1-3.61,10.52,50.86,50.86,0,0,1-4.32,5.32c-1.59,1.74-2.53,2.74-2.8,3a85.06,85.06,0,0,0-9,11.83,22.41,22.41,0,0,0-2.8,6.56,51,51,0,0,0-1.31,8v.51a11.82,11.82,0,0,0,2.52,7.41,7.81,7.81,0,0,0,6.31,2.71,15.51,15.51,0,0,0,4.51-.8,24.71,24.71,0,0,0,10-6.12,51.49,51.49,0,0,0,11-17.24,88.16,88.16,0,0,0,4.82-17.64,31.56,31.56,0,0,0,.39-5.22,30.68,30.68,0,0,0-.89-7.32,20.63,20.63,0,0,0-2.41-5.81c-.2-.34-.7-1-1.51-2.11a4.84,4.84,0,0,1-1.2-2.5c0-.61.53-.9,1.6-.9,4.22-.07,10.49-.11,18.86-.11a5.22,5.22,0,0,1,2.8.51,4.9,4.9,0,0,1,1.3,2.5A37.75,37.75,0,0,1,759.5,539.65Z"/><path class="cls-1" d="M837.39,561.41a28.85,28.85,0,0,1-7.11,19.34,35.86,35.86,0,0,1-12.53,9.53q-13,5.72-25.07,5.21c-4.35-.2-10.92-.3-19.75-.3a6.49,6.49,0,0,1-2.36-.35,1.58,1.58,0,0,1-.94-1.46,10.14,10.14,0,0,1-.11-1.8q.3-15.54.3-31l-.1-31a9.71,9.71,0,0,0-.09-1.2,8.18,8.18,0,0,1-.11-1.4,3.56,3.56,0,0,1,.3-1.51c.14-.2.27-.3.4-.3a2.74,2.74,0,0,1,.91-.1,10.81,10.81,0,0,1,1.65.15,8.69,8.69,0,0,0,1.36.15c1.13.07,2.87.1,5.21.1l5.11-.1c1.07-.06,2.74-.1,5-.1,4.27.14,7.48.27,9.61.41l4.82.2a30.35,30.35,0,0,1,14.44,4.81,48.88,48.88,0,0,1,10.92,8.72,19.08,19.08,0,0,1,3.61,4.91A35.75,35.75,0,0,1,837.39,561.41Zm-17.94-.11A33.91,33.91,0,0,0,815.34,545q-6.92-13-20-15.74a17.7,17.7,0,0,0-3.11-.4,2.28,2.28,0,0,0-2.61,2.41l-.19,7.62q-.21,5.21-.4,15.64,0,14.43.29,28.87a13.2,13.2,0,0,1-.1,1.5c-.06.61-.1,1.34-.1,2.21,0,1.94.34,3.28,1,4a1.61,1.61,0,0,0,1.5.6,25.61,25.61,0,0,0,19.15-8.42A30.58,30.58,0,0,0,819.45,561.3Z"/><path class="cls-1" d="M867.68,591.58a6.07,6.07,0,0,1-.31,1.91,1.42,1.42,0,0,1-.8,1,8.55,8.55,0,0,1-1.9.45,24,24,0,0,1-3.72.2h-3.7c-.47,0-1,0-1.75.1s-1.5.1-2.36.1q-5.22,0-5.62-2.71c-.07-.66-.1-1.7-.1-3.11s.06-3.34.2-6l.1-2.3q.4-6.42.3-9.43c-.19-4.75-.3-9.46-.3-14.14l.11-8.92c0-1.87,0-3.47-.11-4.81l-.1-8.42c0-5.61.27-8.59.8-8.92.94-.61,3.62-.9,8-.9,2.07,0,4.16.06,6.27.2a19.52,19.52,0,0,1,3.66.4,1.14,1.14,0,0,1,.5.4q.5.49.5,6.81c0,2.28-.07,5.68-.2,10.23l-.1,7.42q0,11.43.4,34.09l.1,4.51Z"/><path class="cls-1" d="M946,554.69a50.07,50.07,0,0,1-2.11,14.89,43.33,43.33,0,0,1-6.42,12.68q-8.21,11.32-22.66,13.33c-2.87.47-5.77.87-8.72,1.2a25.79,25.79,0,0,1-2.71.1A23.53,23.53,0,0,1,888.67,592a24.69,24.69,0,0,1-8.77-12.68,56.7,56.7,0,0,1-2.31-15.74A49.16,49.16,0,0,1,880.1,548q5.61-16.63,22.66-22a44.87,44.87,0,0,1,12.93-1.9,52.14,52.14,0,0,1,10.92,1.2q5.71,1.11,11.83,6.22a13.94,13.94,0,0,1,3.62,5.41Q946.37,547.28,946,554.69Zm-8.73-16.54a4.08,4.08,0,0,0-1.2-3,5.18,5.18,0,0,0-3.31-1.4,19.38,19.38,0,0,0-2.21.09c-.59.14-1.56.31-2.9.51a21.31,21.31,0,0,0-3.51.8,63.8,63.8,0,0,0-32.88,22.66,24,24,0,0,0-5,15.73,25.9,25.9,0,0,0,1.91,10.93q2.4,6.31,8.72,6.32a22.56,22.56,0,0,0,8.82-2q9.63-4.31,13.73-12.83,1.82-3.62,5.22-11l1.51-3.5q2.29-5.92,4.35-10.13a51.69,51.69,0,0,1,4.77-7.92,6,6,0,0,0,1-1.75,8.83,8.83,0,0,1,.6-1.36A5.08,5.08,0,0,0,937.24,538.15Z"/><path class="cls-1" d="M1021,574.64a18.33,18.33,0,0,1-2.9,9.72q-7.83,12.33-22.37,12.33A65.85,65.85,0,0,1,979,594q-5.61-1.41-8.52-2a10.9,10.9,0,0,0-3.1-.4,10.48,10.48,0,0,0-6.72,2.51,2.59,2.59,0,0,1-1.51.6,1.07,1.07,0,0,1-.9-.4,11.24,11.24,0,0,1-2.21-6.62,15.67,15.67,0,0,1,.7-4.21q1.81-5.82,8.73-7.12a29.27,29.27,0,0,1,3.91-.4,19.25,19.25,0,0,1,12.13,4.41q4.32,3.51,7.72,6.62l1.5,1.4c1.47,1.34,2.57,2.31,3.32,2.91a9.77,9.77,0,0,0,6.51,2.1,7.13,7.13,0,0,0,6.82-4.61,10.78,10.78,0,0,0,.8-4.21,10.48,10.48,0,0,0-.5-3.3,6.68,6.68,0,0,0-1-2.11,13.58,13.58,0,0,0-1.61-2,16,16,0,0,0-3.16-2.3c-1.1-.6-2.23-1.15-3.41-1.66l-2.46-1a23.63,23.63,0,0,0-5.8-1.9q-7.12-1.5-14.64-2.71a21.37,21.37,0,0,1-8.93-3.51,20.1,20.1,0,0,1-3.6-3.11,25.53,25.53,0,0,1-5.12-12.43,20.14,20.14,0,0,1-.2-2.5,15.89,15.89,0,0,1,4.71-11.13,30.67,30.67,0,0,1,8.82-6.57,26.37,26.37,0,0,1,10.53-2.46,96.53,96.53,0,0,1,23,2.31,32.47,32.47,0,0,0,6.91.8c1.61,0,2.78,0,3.51-.1l2.06-.25a10.9,10.9,0,0,1,2.26-.05.49.49,0,0,1,.4.5,5.24,5.24,0,0,1-1.05,1.71,11.61,11.61,0,0,0-1,1.2l-3.51,3.91q-3.8,4.21-7.22,7.42l-.8.85a1.59,1.59,0,0,1-1.1.65c-.4,0-1-.43-1.91-1.3l-2.2-2.71c-.94-1.2-1.87-2.33-2.81-3.41a51.22,51.22,0,0,0-6.41-5.91,11.71,11.71,0,0,0-6.92-2.21,11,11,0,0,0-7.62,3,7.22,7.22,0,0,0-2.61,5.41,11.45,11.45,0,0,0,.21,1.71,6.13,6.13,0,0,0,2.3,4.11,32.2,32.2,0,0,0,3.61,2.31,58.73,58.73,0,0,0,15.53,5.91,43,43,0,0,1,10.84,3.41A22.5,22.5,0,0,1,1019,566.42,17.7,17.7,0,0,1,1021,574.64Z"/><rect class="cls-1" x="443.38" y="520.27" width="25.64" height="80.46"/><rect class="cls-1" x="443.38" y="520.27" width="25.64" height="80.46" transform="translate(713.51 -114.83) rotate(60)"/></svg>