<svg id="Layer_1" data-name="Layer 1" xmlns="http://www.w3.org/2000/svg" viewBox="0 0 1080 1080"><defs><style>.cls-1{fill:#fff;}</style></defs><title>WordMark_White</title><path class="cls-1" d="M206.93,575a8.34,8.34,0,0,0,1.75,1.28,14.44,14.44,0,0,0,7.57.54q6.08-1.33,12.14-2.76a11.11,11.11,0,0,1,6-.23c.13.78.6,1.77.36,2.53-1.49,4.72-3.12,9.39-4.74,14.07-.61,1.77-2,2.29-3.77,2.35-9.64.32-17.93-2.63-24.42-10-1.48-1.67-2.81-3.47-4.37-5.42-3.55.46-7.19.86-10.8,1.42a33,33,0,0,1-14.25-.83c-9.91-2.8-16.8-9-20.34-18.7a58.09,58.09,0,0,1-3.46-25.44,79.66,79.66,0,0,1,2.3-14.65c4.4-15.51,19.25-27.83,33.57-30.27a70.75,70.75,0,0,1,25.26.18A33.12,33.12,0,0,1,226,497.76a15.45,15.45,0,0,1,3.44,5.11c8.64,20,7.59,39.17-5,57.36A39.22,39.22,0,0,1,210,573.18C209,573.67,208.11,574.3,206.93,575Zm-46.48-21.88a27,27,0,0,0,2.89,12c2.53,4.83,6.93,7.15,12.35,6.07,10.65-2.12,19.52-7.07,24.65-17.11,3.18-6.25,6.16-12.62,9-19,3.48-7.89,6.79-15.84,11.77-23a14.38,14.38,0,0,0,2-4.82c.88-3.64-.59-5.59-4.22-5.75a19.09,19.09,0,0,0-5.24.27c-4.18,1-8.48,1.86-12.38,3.58A136.58,136.58,0,0,0,179,517.52C166.28,526.23,161.52,538.93,160.45,553.14Z"/><path class="cls-1" d="M141.82,575.19a26.78,26.78,0,0,1-3.13.34c-7,0-14.06,0-21.09-.06l-2.87-.05a4.51,4.51,0,0,1-4.44-3c-.42-1-.83-2.07-1.22-3.12q-6.1-16.38-12.2-32.77c-.39-1-.76-2.1-1.23-3.11A2.34,2.34,0,0,0,92.9,532a31.22,31.22,0,0,0-12.73,5.27,4.53,4.53,0,0,0-1.94,5A61.59,61.59,0,0,0,80,548.75,81,81,0,0,0,92.1,571a32.13,32.13,0,0,1,1.8,2.94c-.77,1.72-2,1.54-3.07,1.54-5.43,0-10.86-.05-16.3-.06H59.67c-1.12,0-2.24,0-3.35-.09-1.81-.17-2.6-1.07-2.44-2.83a18.31,18.31,0,0,1,.65-3.28q10.86-38.49,21.75-77c.13-.47.33-.91.45-1.37a4.5,4.5,0,0,1,4.89-3.68c4,0,8,0,12,.07,4.8,0,9.59.05,14.38.1,4.5,0,4.82.2,6.33,4.3,3.79,10.35,7.63,20.68,11.23,31.09,5.47,15.84,10.74,31.76,16.11,47.64C142.16,571.89,142.81,573.37,141.82,575.19ZM83.35,498.36c-3.6,3.23-4.55,7.28-5.63,11.21-2.22,8.08-2.51,17.49-.71,22.79a19.41,19.41,0,0,0,3.07-.55c2.1-.72,4.12-1.69,6.23-2.37,7.39-2.39,7.37-1.78,4.78-9.49q-3.33-9.94-6.68-19.89A11.21,11.21,0,0,0,83.35,498.36Z"/><path class="cls-1" d="M426.91,575.23a27.57,27.57,0,0,1-2.87.31c-7.19,0-14.38,0-21.57-.07-.8,0-1.6,0-2.4,0-2.59.07-4.18-1.26-5.05-3.6l-1.17-3.15-12.21-32.76c-.33-.9-.67-1.8-1.08-2.66a2.12,2.12,0,0,0-2.32-1.31,28.69,28.69,0,0,0-13.53,5.71,4.13,4.13,0,0,0-1.55,4.29c.37,1.71.8,3.42,1.33,5.09a79.76,79.76,0,0,0,12.4,23.65c1.47,2,1.49,1.95,1.49,4.41a28.2,28.2,0,0,1-3.2.34c-10.38,0-20.77-.09-31.16,0-4.6,0-6.14-.49-4.61-5.94q7.15-25.35,14.32-50.7c2.39-8.45,4.83-16.89,7.24-25.33.09-.31.13-.63.23-.93,1.44-4.82,2.11-5.36,7-5.34q12.47,0,24.93.17c4.36,0,4.57.2,6.21,4.46,6.57,17.16,12.48,34.54,18.15,52,2.81,8.66,5.89,17.22,8.85,25.83C426.93,571.28,427.89,572.86,426.91,575.23Zm-58.48-76.68c-2.06,1.08-2.71,2.76-3.4,4.32A47.73,47.73,0,0,0,361,520.43c-.15,3.91-.39,7.85.74,12a17.1,17.1,0,0,0,3-.43c2.24-.79,4.4-1.86,6.67-2.57,7.37-2.3,7.25-2,4.72-9.54q-3.33-9.94-6.67-19.88A8.12,8.12,0,0,0,368.43,498.55Z"/><path class="cls-1" d="M252.67,490.22a8.49,8.49,0,0,1,2.45-1c1.91-.17,3.83-.08,5.75-.1l14.87-.16H280a20.24,20.24,0,0,1,3.62,18.75,21.27,21.27,0,0,1-3.92,7.64c-2.49,3.12-5,6.21-7.75,9.13a125.79,125.79,0,0,0-11.53,14.7c-4.12,6-5.63,12.83-5.94,20a17,17,0,0,0,1,6.08c1.81,5.2,6.28,7.75,11.7,6.91a30,30,0,0,0,17.71-9.76,64.18,64.18,0,0,0,12.66-20.2,97.3,97.3,0,0,0,6.47-24c1.11-8.82-.08-17.23-5.67-24.58-.83-1.1-2-2.23-1-4.09a16.7,16.7,0,0,1,2.61-.38c7.67,0,15.35-.07,23,0,3.21,0,3.93.5,4.87,3.51,2.26,7.27,3.32,14.65,1.47,22.2-1.29,5.28-2.48,10.58-3.87,15.83a60.86,60.86,0,0,0-2.12,16.11c.06,8,.11,16,.08,24,0,6.1-.07,6.16-6.09,6.29-7.35.15-14.71.2-22.06.25a31.31,31.31,0,0,1-3.34-.32c-.85-3.51,3.23-5.32,2.53-8.56a1.57,1.57,0,0,0-2.11-.26c-4.21,1.95-8.36,4-12.61,5.86a57.39,57.39,0,0,1-7.65,2.7c-5,1.38-9.84.42-14.55-1.35a12,12,0,0,1-6.7-6.53,34,34,0,0,1-3.14-12.48,67.35,67.35,0,0,1,2.63-22.76A116.61,116.61,0,0,0,255,512c.34-3.48.51-7,.55-10.51s-.43-6.7-2.47-9.6A5.15,5.15,0,0,1,252.67,490.22Z"/><path class="cls-1" d="M728.82,498.72a12.83,12.83,0,0,1,2.5-.49c4.14.09,8.29.29,12.43.36,7.35.13,14.69.24,22,.25a40,40,0,0,1,23.29,7.6c2.36,1.65,4.62,3.42,6.82,5.27,9,7.64,12.84,17.79,13.07,29.24.25,11.79-5,21.19-14,28.64-5.91,4.9-12.89,7.58-20.14,9.64a57.94,57.94,0,0,1-17,2.19c-8-.15-16-.18-24-.26-.63,0-1.28,0-1.91,0-2.34-.23-3.18-1-3.21-3.3-.07-4.79,0-9.58,0-14.37l-.06-62.27C728.65,500.54,728.74,499.9,728.82,498.72Zm22.77,40h.35q0,9.59,0,19.18c0,4.31-.07,8.62-.05,12.93a15.29,15.29,0,0,0,.4,3.31c.48,2,1.28,2.62,3.4,2.61a27.68,27.68,0,0,0,16.21-5.1c7-5,12.1-11.48,14.22-19.85,4-15.53,0-29.1-11.19-40.48-4.87-4.94-11-7.51-17.85-8.56-3.16-.49-4.42.59-4.53,3.85C752.2,517.29,751.91,528,751.59,538.7Z"/><path class="cls-1" d="M681.19,580.91c-1-1.78.32-2.81,1-4s1.58-2.42,1.14-4c-.93-.82-1.81-.33-2.65.06-4.06,1.87-8.08,3.85-12.18,5.64a34.75,34.75,0,0,1-6.34,2.13,22.3,22.3,0,0,1-13.59-1.59,11.47,11.47,0,0,1-6.09-6.48,35.76,35.76,0,0,1-2.81-15.92,69,69,0,0,1,3-17.93c2.21-6.89,3.28-14,4.24-21.12,0-.32.07-.64.09-1,.33-5.62.56-11.21-2.57-16a2.19,2.19,0,0,1,2.19-1.85,21.14,21.14,0,0,1,2.39-.13c5.92,0,11.84,0,17.75-.18a5,5,0,0,1,5.26,3.2,19.38,19.38,0,0,1-.36,18.42,47.12,47.12,0,0,1-7.87,10.23,124.62,124.62,0,0,0-11.47,14.15c-3.84,5.4-5.52,11.46-6.17,17.91a15.28,15.28,0,0,0,1.11,8,9.34,9.34,0,0,0,9,6,19.19,19.19,0,0,0,7-1.47,29.83,29.83,0,0,0,11.35-7.82A56.87,56.87,0,0,0,684,553.36a85.54,85.54,0,0,0,8.39-28.85c.76-7.68-.4-15-5.3-21.34a11,11,0,0,1-1-1.63c-.77-1.44-.2-2.53,1.39-2.71a7.73,7.73,0,0,1,1-.06c7,0,14.07-.1,21.11-.06,3.46,0,4.23.58,5.19,3.8,2.11,7,3,14.06,1.08,21.27-1.21,4.64-2.26,9.32-3.49,14a58.92,58.92,0,0,0-2,15.64c.07,7.52.06,15,0,22.55,0,4.61-.33,4.94-4.85,5-7.2.12-14.4.16-21.59.2A25.93,25.93,0,0,1,681.19,580.91Z"/><path class="cls-1" d="M553.57,502.58c-2.46,4.69-11.91,15-17.08,18.77-2-.44-2.91-2.24-4.17-3.61-3-3.29-6-6.68-9.13-9.83a19.1,19.1,0,0,0-5.09-3.51,13.1,13.1,0,0,0-14.68,2.43c-4.32,4.2-4,10.24.94,13.61a60.38,60.38,0,0,0,21.06,8.94,66.15,66.15,0,0,1,14.12,4.5,27.08,27.08,0,0,1,13.08,12.85c3.61,7.3,3.38,14.55-.92,21.49-6.84,11-17,15.57-29.72,14.58a109,109,0,0,1-12.75-2.13c-3.75-.75-7.46-1.77-11.18-2.68-.31-.07-.61-.2-.92-.27-4.68-1.16-9.14-1.17-13.27,1.91-1.76,1.32-2.81.84-3.92-.93-3.82-6.09-1.64-17.58,8.33-19.76,7.22-1.57,13.69-.32,19.47,4.11,3.55,2.71,6.85,5.76,10.24,8.68,1.7,1.47,3.33,3,5,4.46a11.31,11.31,0,0,0,7.06,2.64,8.47,8.47,0,0,0,9.09-6.3c1.38-4.79.68-9.26-3.15-12.76a25,25,0,0,0-5.15-3.46,54.83,54.83,0,0,0-17.19-5.75c-4.1-.65-8.21-1.32-12.28-2.14a34.74,34.74,0,0,1-6.42-1.87,21.46,21.46,0,0,1-11.15-10.07,32.57,32.57,0,0,1-3.56-11.87A18,18,0,0,1,485,510.49a32.26,32.26,0,0,1,24.83-11.62,100.13,100.13,0,0,1,21.93,2,63.2,63.2,0,0,0,19.52,1.39A11.9,11.9,0,0,1,553.57,502.58Z"/><path class="cls-1" d="M1024.65,502.59c-3.09,5.3-13,15.85-17.3,18.76-2.16-.64-3.21-2.55-4.47-4.15a67.66,67.66,0,0,0-10.3-10.69,14.15,14.15,0,0,0-10.24-3.26,12.4,12.4,0,0,0-8.43,4.05,8.39,8.39,0,0,0,1.18,13,59.59,59.59,0,0,0,21.47,9.15,61,61,0,0,1,15,5,26.87,26.87,0,0,1,13.26,15.15,20.36,20.36,0,0,1-1.95,18.42c-6.85,11.25-17.13,15.88-30,14.83a106.67,106.67,0,0,1-12.75-2.14c-3.91-.81-7.75-1.9-11.64-2.81a36.06,36.06,0,0,0-4.72-.8,12.85,12.85,0,0,0-8.57,2.43c-2.28,1.51-3.3,1.1-4.52-1.3a13.31,13.31,0,0,1,8.79-19.2,21.82,21.82,0,0,1,19.43,4.17c3.67,2.83,7.08,6,10.58,9,1.46,1.25,2.84,2.59,4.3,3.83a11.18,11.18,0,0,0,5.56,2.62c6.06,1,10.44-2,11.37-8.05a11.27,11.27,0,0,0-3.43-10.5,25.58,25.58,0,0,0-5.48-3.78,53.17,53.17,0,0,0-16.26-5.55c-4.1-.68-8.2-1.37-12.27-2.18a41.11,41.11,0,0,1-6.92-1.87,21,21,0,0,1-11.55-10.27,32.61,32.61,0,0,1-3.44-11.4,18.51,18.51,0,0,1,5.08-14.95c6.59-7.24,14.72-11.09,24.56-11.18a103.71,103.71,0,0,1,22.39,2.14,59.24,59.24,0,0,0,18.09,1.34A21.11,21.11,0,0,1,1024.65,502.59Z"/><path class="cls-1" d="M937.26,537a50.28,50.28,0,0,1-10,28.89,37.55,37.55,0,0,1-24.59,15.31c-3.62.64-7.25,1.23-10.9,1.66-10.14,1.2-19-1.4-26.11-9a27.34,27.34,0,0,1-6.25-10.67c-3.6-11.73-4.19-23.56-.81-35.45,4.81-17,16.27-26.6,33.32-29.94a54.89,54.89,0,0,1,23.31.77,30.09,30.09,0,0,1,13.65,7.62,14.06,14.06,0,0,1,3.06,4.25A52,52,0,0,1,937.26,537Zm-70.5,18.31a29.15,29.15,0,0,0,2.69,14c1.85,4.25,5.13,6.47,9.79,6.32a25.24,25.24,0,0,0,6.13-.85c9.18-2.65,16.31-8,20.5-16.73q4.64-9.72,8.91-19.62c2.78-6.46,5.55-12.9,9.68-18.67a17,17,0,0,0,2.21-4.74,4.64,4.64,0,0,0-2.78-5.89,8.89,8.89,0,0,0-4.16-.63,46.63,46.63,0,0,0-8,1.57,75.19,75.19,0,0,0-37.74,25C869.19,541.06,866.4,547.64,866.76,555.34Z"/><path class="cls-1" d="M584.76,518.69c-3-1-5.61-.63-8.14-.42-3.19.26-6.36.65-9.54,1-.64.06-1.27.18-1.91.2a2.83,2.83,0,0,1-3-1.86,53.57,53.57,0,0,1-3.09-14c-.21-2.49,1.05-3.78,3.74-3.95q6.94-.43,13.9-.62c11.19-.29,22.39-.52,33.58-.76,3.68-.08,7.35-.2,11-.18,3.85,0,4.64.5,5.2,4.12.66,4.26,1,8.58,1.3,12.88a2.33,2.33,0,0,1-2.27,2.59,28.69,28.69,0,0,1-3.35.14c-7.51.05-15,.07-22.55.16a24.66,24.66,0,0,0-5.23.48c-3.55.86-5.14,3.78-4.16,7.34a18.84,18.84,0,0,0,4.62,7.75c3.34,3.66,6.71,7.3,10,11a45.9,45.9,0,0,1,10,18.38c1.77,6.56.78,12.63-3.51,17.91-7.06.64-23.45.59-27.75-.12a15.7,15.7,0,0,1,.72-3.13,37.2,37.2,0,0,0,2.89-12.56,78.94,78.94,0,0,0-1.26-22c-.6-3-1.16-6-1.77-8.94a28,28,0,0,1,0-11.89C584.41,521.2,584.53,520.12,584.76,518.69Z"/><path class="cls-1" d="M822.06,499.77c7.29-1.63,14.24-1.07,21.26-.16a11.7,11.7,0,0,1,1.13,6.21c-.1,6.72-.36,13.43-.36,20.14,0,10.24.15,20.47.28,30.7.08,6.4.24,12.79.35,19.19a15.24,15.24,0,0,1-.06,1.91c-.19,1.77-.8,2.5-2.63,2.93a16.15,16.15,0,0,1-3.32.43c-3.83.1-7.67.14-11.51.16a13.69,13.69,0,0,1-2.86-.23c-2.44-.51-3.55-1.74-3.53-4.35,0-5,.28-9.9.38-14.86.09-3.83.15-7.66.13-11.5,0-3.67-.24-7.35-.26-11-.07-10.55-.09-21.1-.12-31.65A19.34,19.34,0,0,1,822.06,499.77Z"/></svg>